inDegrees=yes
name=IK-live
DataType=double
version=3
OpenSimVersion=4.1
endheader
time	pelvis_tilt	pelvis_list	pelvis_rotation	pelvis_tx	pelvis_ty	pelvis_tz	hip_flexion_r	hip_adduction_r	hip_rotation_r	knee_angle_r	ankle_angle_r	subtalar_angle_r	mtp_angle_r	hip_flexion_l	hip_adduction_l	hip_rotation_l	knee_angle_l	ankle_angle_l	subtalar_angle_l	mtp_angle_l	lumbar_extension	lumbar_bending	lumbar_rotation	neck_flex	neck_latbend	neck_rot	arm_flex_r	arm_add_r	arm_rot_r	elbow_flex_r	pro_sup_r	wrist_flex_r	wrist_dev_r	arm_flex_l	arm_add_l	arm_rot_l	elbow_flex_l	pro_sup_l	wrist_flex_l	wrist_dev_l
169.8502955	6.325876021505366	14.35861146093636	40.81166629482492	0.2341366603171506	0.04326292228651554	-1.326684523481465	4.781722459307137	2.208137635870886	12.4928362223278	5.899560354604904	2.451982624139334	1.987972377786656	0	-21.28023967012555	23.18175324641075	291.3602237496785	9.793848132074926	-0.4439473045988533	4.250290820099795	0	-21.37711699760957	1.659277491615732	3.206407148933037	0	0	0	18.34812921611378	-15.10862319179013	18.53556534953289	69.08792933832179	43.00661532583595	0	6.594738009682223	22.3296041031693	-13.91056029655962	24.86517640100395	69.99831276332849	43.65964933399795	0	6.594738009682223
170.1130269	6.326585046155071	14.33700150074046	40.74969301230224	0.2341366603171506	0.04326292228651554	-1.326684523481465	4.807515910838636	2.218657800205319	12.53540342499478	5.899560354604904	2.451982624139334	1.987972377786656	0	-21.57606205105244	22.90659051165862	291.2018940697463	9.793848132074926	-0.4439473045988533	4.250290820099795	0	-21.37711699760957	1.659277491615732	3.206407148933037	0	0	0	87.5044074862608	-14.99217055986806	-0.8936742971338327	75.09053923130249	44.79340906019211	0	4.969394174412693	87.51007720522844	-15.07852142287999	-1.182268342197433	75.05822520695122	44.86094082818443	0	4.969394174412693
170.372985	6.315511401254639	14.33239217935223	40.7471258669263	0.2341366603171506	0.04326292228651554	-1.326684523481465	4.825270970430245	2.220928711759663	12.52871493907159	5.899560354604904	2.451982624139334	1.987972377786656	0	-21.11770972457663	28.90258553393291	296.5145861180242	9.793848132074926	-0.4439473045988533	4.250290820099795	0	-21.37711699760957	1.659277491615732	3.206407148933037	0	0	0	19.23820825369627	-15.10449999931223	17.37720300287646	68.21655612993042	43.77697169748994	0	6.684375578915091	23.11800801433884	-13.95192891679526	23.3166528252085	69.07806514002721	44.25367740846021	0	6.684375578915091
170.6248293	6.325100944123601	14.33167570795333	40.74136788528573	0.2341366603171506	0.04326292228651554	-1.326684523481465	4.829809143903802	2.208959126596517	12.54574539632358	5.899560354604904	2.451982624139334	1.987972377786656	0	-9.404451000942847	62.33285907947756	-54.40901004977192	9.793848132074926	-0.4439473045988533	4.250290820099795	0	-21.37711699760957	1.659277491615732	3.206407148933037	0	0	0	79.43453669519398	-14.98085546545939	-3.165203769889089	74.91071245778781	44.80052264942059	0	4.945776791629758	79.74987709011231	-15.19199691215312	-3.974127815245324	74.83197442450465	44.91281591036625	0	4.945776791629758
170.875566	6.32486835143807	14.34344760900357	40.74978741353488	0.2341366603171506	0.04326292228651554	-1.326684523481465	4.838147917113057	2.197430367518181	12.53472214850409	5.899560354604904	2.451982624139334	1.987972377786656	0	3.668885551117828	67.43141905402213	-60.8579488925273	9.793848132074926	-0.4439473045988533	4.250290820099795	0	-21.37711699760957	1.659277491615732	3.206407148933037	0	0	0	41.59549868863387	-15.03429414406475	2.6680654943366	78.12183299269874	45.29886134810094	0	4.848983856662445	43.8805937379832	-14.65610505356222	3.216520526762646	78.19727539188123	45.18483955089759	0	4.848983856662445
171.6477699	6.310607057483304	14.32925048875003	40.69500507848833	0.2341366603171506	0.04326292228651554	-1.326684523481465	4.862068006443221	2.193880382460531	12.58666676042154	5.899560354604904	2.451982624139334	1.987972377786656	0	4.320335979993485	67.54753998146479	-61.34169580334746	9.793848132074926	-0.4439473045988533	4.250290820099795	0	-21.37711699760957	1.659277491615732	3.206407148933037	0	0	0	24.37753682475131	-15.08372978121332	12.19414910413885	72.02743229524465	47.19291150770648	0	6.953165242592505	27.8074495394684	-14.16028324278287	16.39989801583283	72.78664416830213	46.44075146822779	0	6.953165242592505
171.9003164	6.324005660699932	14.35141694921958	40.74451167859994	0.2341366603171506	0.04326292228651554	-1.326684523481465	4.846301318187874	2.137890242662631	12.57201641557144	5.899560354604904	2.451982624139334	1.987972377786656	0	-28.48817185402656	23.84343996125276	-43.57581657024345	9.793848132074926	-0.4439473045988533	4.250290820099795	0	-21.37711699760957	1.659277491615732	3.206407148933037	0	0	0	81.0426025676726	-14.97895860618932	-3.024219003009494	75.87535689606858	45.18213834841272	0	5.226152543122231	81.70113888604621	-15.21094658416182	-3.483675267713706	75.76815477145581	45.05946331700418	0	5.226152543122231
172.1510558	6.337609354619821	14.34020025404216	40.76701910949486	0.2341366603171506	0.04326292228651554	-1.326684523481465	4.856104807885963	2.142449638498827	12.55469542428372	5.899560354604904	2.451982624139334	1.987972377786656	0	-29.47921856883046	23.02636313299561	-42.92371380393103	9.793848132074926	-0.4439473045988533	4.250290820099795	0	-21.37711699760957	1.659277491615732	3.206407148933037	0	0	0	10.61175034007357	-15.13641382424095	23.51467743028106	61.1148331492143	39.82955874216655	0	5.889394824399821	14.9706454820127	-13.6318941336285	30.6756978065954	61.96360170758049	41.66609273541575	0	5.889394824399821
172.41191	6.329262889210663	14.34524159051374	40.777855106067	0.2341366603171506	0.04326292228651554	-1.326684523481465	4.892767976368043	2.130680791254949	12.54497355360028	5.899560354604904	2.451982624139334	1.987972377786656	0	-35.20323600613781	18.1195286545517	-40.7430486118197	9.793848132074926	-0.4439473045988533	4.250290820099795	0	-21.37711699760957	1.659277491615732	3.206407148933037	0	0	0	11.70094517120237	-15.13198584942656	21.96008061960856	75.08058103321707	43.67074243718078	0	6.726138280016861	15.95852473528176	-13.67632373764475	28.09372948051026	75.9165413119221	43.49672884520257	0	6.726138280016861
